<?xml version="1.0" encoding="utf-8"?>
<!-- Generator: Adobe Illustrator 21.1.0, SVG Export Plug-In . SVG Version: 6.00 Build 0)  -->
<svg version="1.1" id="Layer_1" xmlns="http://www.w3.org/2000/svg" xmlns:xlink="http://www.w3.org/1999/xlink" x="0px" y="0px"
	 viewBox="0 0 214.4 112.1" style="enable-background:new 0 0 214.4 112.1;" xml:space="preserve">
<style type="text/css">
	.st0{fill:#FFFFFF;}
</style>
<title>cpc_logo</title>
<g id="Layer_2">
	<g id="Layer_1-2">
		<path class="st0" d="M201.9,1.8l-0.6,0.1l-0.4,0.4l-7.3,7.8V3l-3.2,0.5l-0.6,0.1l-0.4,0.4l-6.2,6.2l-2.4-5.3l-2.6,0.4l-0.6,0.1
			l-8.3,9V6.5L165.7,7l-0.6,0.1l0,0l-7.9,8.9v-0.4c0-1.1-0.2-2.3-0.5-3.4c-0.3-0.9-0.9-1.8-1.7-2.4c-0.8-0.5-1.7-0.8-2.6-0.9
			c-1,0-2,0-3,0.2c-1,0.1-2,0.4-3,0.7c-1,0.3-1.8,0.9-2.6,1.6c-0.3,0.3-0.5,0.5-0.7,0.9l-7.8,8.5h-0.3V20c0-2.9-0.7-5-2.1-6.1
			c-1.6-1.2-3.6-1.6-5.5-1.2l-6.9,1l-0.6,0.1L110,24.4l-1.7,0.2l7.1-10.4l-5.6,0.8l-7.3,10.8v-9.7l-3.8,0.6L88.5,27.4l-6.2,0.9
			c0.2-0.6,0.5-1.2,0.8-1.7c0.5-1.1,1.3-2,2.2-2.8c0.7-0.7,1.6-1.1,2.6-1.2l2.5-0.4V18l-1.6,0c-0.3,0-0.7,0-1,0.1L87,18.2
			c-1.3,0.2-2.6,0.8-3.7,1.6l-0.5,0.4l-0.6,0.5c-0.3,0.2-0.5,0.5-0.8,0.8l-7.6,7.9L62,31.1v-4.6l8-1.1v-4.5l-11.2,1.6l-0.6,0.1
			L57.8,23l-8.3,9.3v-8.5l-4.2,0.6l-7.4,8.6v-7.6L34.3,26l-0.6,0.1l-8.6,10l-7.2,1c0.2-0.4,0.3-0.8,0.6-1.2c0.5-1.1,1.3-2,2.1-2.8
			c0.7-0.7,1.6-1.1,2.6-1.2l2.5-0.4v-4.2l-1.6,0c-0.3,0-0.7,0-1,0.1l-0.8,0.1c-1.3,0.2-2.6,0.8-3.7,1.6c-0.7,0.5-1.4,1.1-1.9,1.8
			L4.2,44.4l-0.1,0.1c-0.3,0.4-0.6,0.8-0.9,1.2c-1.1,1.7-1.9,3.6-2.4,5.6c-0.6,2.5-0.9,5-0.9,7.5c0,2.4,0.3,4.8,1,7.1
			c0.5,1.8,1.4,3.4,2.6,4.8c1.1,1.3,34.3,36.8,35.4,38c1,1.2,2.3,2.2,3.8,2.7c1,0.4,2,0.5,3,0.5c0.4,0,0.7,0,1.1-0.1l2-0.2L164.7,94
			l0.4-0.1l14.2-16.4l0.2-0.8v-3.5l-8,1.2v-3.2l6.6-7.9v-3.5l-6.6,1v-2.1l7.6-8.8l0.4-0.4v-3.8l20.3-3.1l9.9-9.9V5.1l4.7-0.7V0
			L201.9,1.8z M25.1,59.2l-2,0.3c-1.2,0.2-2.4,0-3.5-0.4c-1.3-0.5-2.4-1.3-3.3-2.3c-1-1.3-1.8-2.8-2.3-4.4c-0.7-2.2-1-4.4-0.9-6.7
			c0-2.4,0.3-4.8,0.9-7.2c0.5-1.9,1.2-3.6,2.2-5.3c0.8-1.3,1.9-2.5,3.1-3.4c1-0.8,2.1-1.3,3.4-1.5l0.8-0.1c0.3,0,0.6-0.1,0.9-0.1
			h0.8v2.8l-1.9,0.3c-1.1,0.2-2.2,0.6-3,1.4c-1,0.8-1.7,1.9-2.3,3c-0.7,1.4-1.2,2.9-1.5,4.4c-0.4,1.7-0.6,3.5-0.6,5.3
			c0,1.6,0.2,3.3,0.6,4.8c0.3,1.3,0.8,2.6,1.6,3.7c0.6,0.9,1.4,1.7,2.4,2.2c1,0.5,2.1,0.6,3.1,0.4l1.6-0.2L25.1,59.2z M58.6,23.3
			l10.7-1.5v3l-7.9,1.1v11.3l6.6-1v3l-6.6,1v10.6l8-1.2v3l-10.8,1.5L58.6,23.3z M37.2,43.6v13.6l-2.8,0.4V26.8l2.8-0.4v14.3l8.9-1.3
			V25.1l2.8-0.4v30.8l-2.8,0.4V42.3L37.2,43.6z M58.3,66.4l-1.9,0.3c-1.1,0.1-2.2,0.6-3,1.4c-1,0.8-1.7,1.9-2.3,3
			c-0.7,1.4-1.2,2.9-1.5,4.4C49.2,77.2,49,79,49,80.8c0,1.6,0.2,3.3,0.6,4.8c0.3,1.3,0.8,2.6,1.6,3.7c0.6,0.9,1.4,1.7,2.4,2.2
			c1,0.5,2.1,0.6,3.1,0.4l1.6-0.2v3l-2,0.3c-1.2,0.2-2.4,0-3.5-0.4c-1.3-0.5-2.4-1.3-3.3-2.3c-1.1-1.3-1.8-2.8-2.3-4.4
			c-0.7-2.2-1-4.4-0.9-6.7c0-2.4,0.3-4.8,0.8-7.2c0.5-1.9,1.2-3.6,2.2-5.3c0.8-1.3,1.9-2.5,3.1-3.4c1-0.8,2.1-1.3,3.4-1.5l0.8-0.1
			c0.3,0,0.6-0.1,0.9-0.1h0.8L58.3,66.4z M82,91l-2.8,0.4V77.8l-8.9,1.3v13.6l-2.8,0.4V62.3l2.8-0.4v14.3l8.9-1.3V60.6l2.8-0.4V91z
			 M89.6,49.8l-2,0.3c-1.2,0.2-2.4,0-3.5-0.4c-1.3-0.5-2.4-1.3-3.3-2.3c-1.1-1.3-1.9-2.8-2.4-4.4c-0.7-2.2-1-4.4-0.9-6.7
			c0-2.4,0.3-4.9,0.9-7.2c0.5-1.9,1.2-3.6,2.2-5.3c0.8-1.3,1.9-2.5,3.1-3.4c1-0.8,2.1-1.3,3.4-1.5l0.8-0.1c0.3,0,0.6-0.1,0.9-0.1
			h0.8v2.8l-1.9,0.3c-1.1,0.2-2.2,0.6-3,1.4c-1,0.8-1.7,1.9-2.3,3c-0.7,1.4-1.2,2.9-1.5,4.4c-0.4,1.7-0.6,3.5-0.6,5.3
			c0,1.6,0.2,3.3,0.6,4.8c0.3,1.3,0.8,2.6,1.6,3.7c0.6,0.9,1.4,1.7,2.4,2.2c1,0.5,2.1,0.6,3.1,0.4l1.6-0.2L89.6,49.8z M103.2,87.9
			l-1.9-8.9L94.8,80l-2,9.4l-2.8,0.4l6.7-31.8l0.9-0.1l0.9-0.1l1-0.1l6.7,29.9L103.2,87.9z M110.3,46.6l-8.6-10.5v11.7L99,48.3V17.4
			l2.8-0.4v11.3l8.4-12.5l3.6-0.5l-11.5,16.8l11.5,14L110.3,46.6z M125.3,84.8L122,74c-0.3,0.1-0.5,0.1-0.8,0.2l-4.4,0.6V86
			l-2.8,0.4V55.5l6.9-1c1.7-0.4,3.5,0,4.9,1c1.2,1,1.9,2.9,1.9,5.6v4.4c0.1,1.7-0.3,3.4-1.1,4.9c-0.5,0.9-1.2,1.7-2,2.3l3.5,11.6
			L125.3,84.8z M134.3,24.2c0,1.2-0.2,2.4-0.6,3.6c-0.3,1-0.9,1.9-1.5,2.6c-0.6,0.7-1.4,1.3-2.2,1.7c-0.7,0.4-1.5,0.6-2.4,0.8
			l-4.4,0.6v11.2l-2.8,0.4V14.3l6.9-1c1.7-0.4,3.6,0,5,1.1c1.2,1,1.9,2.9,1.9,5.6L134.3,24.2z M147.4,81.6l-11,1.6l0.1-30.8l2.8-0.4
			v27.9l8.2-1.2L147.4,81.6z M154.2,39.1c-0.7,0.6-1.4,1.1-2.3,1.4c-0.8,0.3-1.6,0.5-2.4,0.6c-0.8,0.1-1.6,0.1-2.4,0.1
			c-0.8-0.1-1.6-0.3-2.3-0.7c-0.8-0.4-1.4-1.1-1.8-1.9c-0.4-1-0.7-2.1-0.6-3.2V17.6c0-1.1,0.1-2.2,0.5-3.2c0.3-0.9,0.8-1.7,1.5-2.4
			c0.7-0.6,1.4-1.1,2.3-1.4c0.9-0.3,1.9-0.5,2.9-0.7c0.9-0.1,1.9-0.2,2.9-0.2c0.8,0,1.6,0.3,2.3,0.7c0.7,0.5,1.2,1.2,1.4,2
			c0.3,1,0.5,2,0.4,3.1v17.9c0,1.1-0.2,2.3-0.6,3.3C155.5,37.7,154.9,38.5,154.2,39.1L154.2,39.1z M158.4,80l-2.8,0.4V49.6l2.8-0.4
			V80z M168.6,38.2l-2.8,0.4V7.8l2.8-0.4V38.2z M178.8,49.2l-7.9,1.1v11.3l6.6-1v3l-6.6,0.9v10.6l7.9-1.1v3l-10.7,1.5V47.8l10.7-1.5
			L178.8,49.2z M192.9,34.7l-0.9,0.1l-0.5,0.1l-1.1,0.2L181,14.3v22.1l-2.8,0.4V6l0.9-0.1h0.2l1-0.2l9.8,21.6v-23l2.8-0.4
			L192.9,34.7z M213.7,3.8L209,4.5v27.9l-2.7,0.4V4.9l-4.6,0.7v-3l12-1.8L213.7,3.8z"/>
	</g>
</g>
</svg>
